<svg xmlns="http://www.w3.org/2000/svg" width="1574.63" height="631.25" viewBox="0 0 1574.63 631.25">
  <defs>
    <style>
      .cls-1 {
        fill: #0e8e15;
      }

      .cls-2, .cls-7 {
        opacity: 0.99;
      }

      .cls-3 {
        fill: #515151;
      }

      .cls-4 {
        fill: #4e6d22;
      }

      .cls-12, .cls-5, .cls-6, .cls-7 {
        fill: none;
      }

      .cls-5, .cls-6 {
        stroke: #ff0;
        stroke-width: 3px;
      }

      .cls-5, .cls-6, .cls-7 {
        stroke-linejoin: bevel;
      }

      .cls-6 {
        stroke-dasharray: 12 12;
      }

      .cls-7 {
        stroke: red;
      }

      .cls-8 {
        fill: #ff7f00;
      }

      .cls-9 {
        fill: #191919;
      }

      .cls-10, .cls-9 {
        opacity: 0.9;
      }

      .cls-10, .cls-12, .cls-9 {
        isolation: isolate;
      }

      .cls-11 {
        fill: #fff;
      }

      .cls-12 {
        stroke: #292929;
        stroke-linecap: round;
        stroke-linejoin: round;
        opacity: 0.5;
      }
    </style>
  </defs>
  <title>car_and_road</title>
  <g id="road">
    <path id="grass" class="cls-1" d="M.88-.4V630.85H1574.63V-.4ZM1543.13,370.1c4,20,18,36,20,57C1561.13,406.1,1547.13,390.1,1543.13,370.1Z" transform="translate(0 0.4)"/>
    <g id="paving" class="cls-2">
      <path class="cls-3" d="M839.58,604.08q-4.56,0-9.19-.13C792.19,602.83,751,594.78,708,580c-73.92-25.37-129.43-62.33-135.51-66.46C505.4,468,472.07,422.16,445.28,385.3c-25.19-34.65-41.83-57.55-77.25-68.52-28.8-8.92-60.77-7.55-97.74,4.19-52.9,16.8-114,54.72-181.63,112.7L43.1,380.53c74.79-64.13,144.1-106.61,206-126.27,50.34-16,97.32-17.45,139.64-4.35,57.66,17.86,84.62,55,113.16,94.24,24.82,34.14,52.94,72.83,109.89,111.49,2.11,1.43,52.48,35.36,118.92,58.17,36.35,12.47,70.57,19.26,101.72,20.17,36.59,1.06,69.08-6.08,96.51-21.26.82-.45,81.64-46,80.7-113.88-.44-31.2-26.77-68.59-65.51-93.06-32.24-20.36-65.72-26.82-87.4-16.88-16.07,7.38-25,17.11-36.33,29.42-13.32,14.49-28.42,30.91-54.9,43.08-26.25,12.06-51,16.68-73.52,13.72a89.74,89.74,0,0,1-58.17-31.77c-38.92-46.46-34.16-130.59,11.05-195.68,28.58-41.13,69.69-70.15,118.91-83.92C820.42,47.9,885.2,52.65,956.33,77.86,1035.5,105.92,1071.9,168.12,1104,223c29.45,50.34,52.72,90.09,101.83,102.71,34.87,8.95,64.9-2.25,99.67-15.22,23.28-8.68,47.36-17.66,74.52-21.12,32.57-4.15,63.35.64,94.1,14.63,36.17,16.46,67.17,43.78,92.12,81.18L1508,424c-17.61-26.39-38.77-45.34-62.88-56.32-41.78-19-74.16-6.93-115.16,8.37-40,14.93-85.4,31.85-141.55,17.43-77.38-19.88-113.22-81.12-144.84-135.15-55.59-95-82.33-104.48-110.65-114.51-57.26-20.3-107.83-24.56-150.31-12.68-42.13,11.79-66.91,37.2-80.28,56.45-28.77,41.41-30.93,91.63-14.88,110.8a19.9,19.9,0,0,0,13.6,7.31c6.37.83,17.65.14,35.2-7.93,13.7-6.29,21.63-14.92,32.6-26.85,13.27-14.43,29.79-32.4,58.66-45.65,23.29-10.7,50.85-13.63,79.68-8.49,24.71,4.4,50.4,14.7,74.29,29.79,27,17,50.37,39.14,67.61,63.92,19.56,28.09,30.11,58.29,30.52,87.35.64,45.61-19,90.31-56.86,129.26-28,28.77-56.75,45.09-59.95,46.85C926.67,594,885.25,604.08,839.58,604.08Z" transform="translate(0 0.4)"/>
      <g id="leftside">
        <path class="cls-4" d="M611.79,455.64c2.11,1.43,52.48,35.36,118.92,58.17,36.35,12.47,70.57,19.26,101.72,20.17q3.57.1,7.08.1c33.71,0,63.78-7.17,89.43-21.36.77-.43,73.21-41.26,80.16-103.19l-6.05,0c-7,58.18-76.28,97.51-77,97.93-24.72,13.67-53.83,20.6-86.52,20.6-2.27,0-4.59,0-6.9-.1-30.55-.89-64.18-7.57-100-19.85-65.66-22.53-115.42-56-117.5-57.46a378.56,378.56,0,0,1-49.8-40.06l-8.59,0A382,382,0,0,0,611.79,455.64Z" transform="translate(0 0.4)"/>
        <path class="cls-4" d="M1574.57,386.84l-3.33-5c-25.58-38.36-57.42-66.39-94.63-83.32-24.56-11.18-48.85-16.61-74.25-16.61a182.91,182.91,0,0,0-23.08,1.49c-27.86,3.54-52.26,12.64-75.86,21.45-26,9.69-48.42,18.06-72.1,18.06a95.33,95.33,0,0,1-24-3c-21.34-5.49-38.9-16.72-55.27-35.36-15.26-17.38-28-39.25-42.87-64.57-32.63-55.76-69.62-119-150.86-147.76-44.19-15.66-86.44-23.61-125.57-23.61A262.23,262.23,0,0,0,762.15,58c-50.57,14.15-92.83,44-122.21,86.28-22.5,32.38-36,70.7-38.14,107.91-2.13,37.64,7.6,71.4,27.41,95a95.63,95.63,0,0,0,62,33.87,109.37,109.37,0,0,0,14.23.92c19.66,0,40.71-5.09,62.57-15.14,27.58-12.67,43.11-29.56,56.82-44.47,11.29-12.28,19.44-21.15,34.42-28a49.38,49.38,0,0,1,20.7-4.05c18.35,0,40,7.3,61,20.54,18.34,11.59,34.05,26.25,45.41,42.39,11.12,15.79,17.1,31.59,17.3,45.68a77.75,77.75,0,0,1-.59,10.63l6.05,0a85.71,85.71,0,0,0,.54-10.69c-.44-31.2-26.77-68.59-65.51-93.06-22.23-14-45-21.47-64.19-21.47a55.65,55.65,0,0,0-23.21,4.59c-16.07,7.38-25,17.11-36.33,29.42-13.32,14.49-28.42,30.91-54.9,43.08C744.38,371.1,724.23,376,705.43,376a102.78,102.78,0,0,1-13.45-.87,89.74,89.74,0,0,1-58.17-31.77c-38.92-46.46-34.16-130.59,11.05-195.68,28.58-41.13,69.69-70.15,118.91-83.92a254.89,254.89,0,0,1,69-9.16c38.52,0,79.84,7.77,123.57,23.27C1035.5,105.92,1071.9,168.12,1104,223c29.45,50.34,52.72,90.09,101.83,102.71a101.93,101.93,0,0,0,25.48,3.22c24.76,0,48.14-8.72,74.19-18.44,23.28-8.68,47.36-17.66,74.52-21.12a176.4,176.4,0,0,1,22.33-1.44c24.48,0,48.13,5.31,71.77,16.07,36.17,16.46,67.17,43.78,92.12,81.18l3.33,5Z" transform="translate(0 0.4)"/>
        <path class="cls-4" d="M506.76,340.62c-29.15-40.11-56.68-78-116.25-96.44a208.08,208.08,0,0,0-61.64-9.11c-26,0-53.44,4.53-81.59,13.47C184.61,268.44,114.6,311.32,39.2,376l-4.56,3.91,3.91,4.55,4.55-3.9c74.79-64.13,144.1-106.61,206-126.27,27.68-8.8,54.34-13.19,79.77-13.19a201.41,201.41,0,0,1,59.87,8.84c57.66,17.86,84.62,55,113.16,94.24C517,365,533.4,387.47,556.77,410.63l8.59,0C539.92,386.24,522.65,362.48,506.76,340.62Z" transform="translate(0 0.4)"/>
      </g>
      <g id="rightside">
        <path class="cls-4" d="M1445.14,367.7c-15.28-6.95-29.3-9.74-43-9.74-23.67,0-46.2,8.4-72.21,18.11C1300.69,387,1268.55,399,1231.41,399a171.68,171.68,0,0,1-43-5.48c-77.38-19.88-113.22-81.12-144.84-135.15-55.59-95-82.33-104.48-110.65-114.51C896.78,131,863.29,124.6,832.82,124.59a185.6,185.6,0,0,0-50.19,6.57c-42.13,11.79-66.91,37.2-80.28,56.45-28.77,41.41-30.93,91.63-14.88,110.8a19.9,19.9,0,0,0,13.6,7.31,34.71,34.71,0,0,0,4.38.27c6.71,0,16.75-1.73,30.82-8.2,13.7-6.29,21.63-14.92,32.6-26.85,13.27-14.43,29.79-32.4,58.66-45.65,15.84-7.27,33.64-11,52.47-11a154.67,154.67,0,0,1,27.21,2.47c24.71,4.4,50.4,14.7,74.29,29.79,27,17,50.37,39.14,67.61,63.92,19.56,28.09,30.11,58.29,30.52,87.35,0,3.84-.05,7.68-.28,11.5h6c.22-3.85.32-7.71.27-11.58-.42-30.25-11.35-61.61-31.59-90.69-17.7-25.43-41.68-48.1-69.33-65.56-24.55-15.5-51-26.09-76.45-30.63A161.11,161.11,0,0,0,880,208.33c-19.86,0-38.36,3.87-55,11.5-30,13.76-46.94,32.22-60.57,47-10.9,11.85-18.09,19.67-30.7,25.46-13.75,6.32-23,7.65-28.31,7.65a28.88,28.88,0,0,1-3.6-.22,14,14,0,0,1-9.78-5.21c-7-8.31-9.94-24.22-8-42.58,2.22-20.95,10.46-42.59,23.21-60.95s36.56-42.78,77-54.09a180.51,180.51,0,0,1,48.58-6.35c29.73,0,62.75,6.36,98.11,18.9,27.26,9.66,53,18.79,107.49,111.89,16.22,27.72,33,56.39,56,81.41,26.55,28.86,56.8,47.35,92.49,56.52a179.18,179.18,0,0,0,44.48,5.67c38.22,0,71.39-12.37,100.66-23.29,25.51-9.52,47.54-17.73,70.12-17.73,13.61,0,26.85,3,40.46,9.2,16.86,7.68,32.24,19.49,45.92,35.21l7.84,0C1481.35,390,1464.17,376.37,1445.14,367.7Z" transform="translate(0 0.4)"/>
        <path class="cls-4" d="M1508,424q-5.57-8.34-11.61-15.67l-7.84,0a185.37,185.37,0,0,1,14.45,19l3.33,5,5-3.33Z" transform="translate(0 0.4)"/>
        <path class="cls-4" d="M88.66,433.67l-4.55,3.9,3.9,4.56,4.56-3.91q16.43-14.07,32.3-26.55l-9.69,0Q102.1,422.16,88.66,433.67Z" transform="translate(0 0.4)"/>
        <path class="cls-4" d="M445.28,385.3c-25.19-34.65-41.83-57.55-77.25-68.52A131.88,131.88,0,0,0,328.72,311c-18.1,0-37.46,3.32-58.43,10-45.89,14.58-98,45-155.11,90.73l9.69,0c54.22-42.59,103.63-71.13,147.24-85,20.55-6.53,39.07-9.7,56.61-9.7a126.87,126.87,0,0,1,37.53,5.52,95.06,95.06,0,0,1,40.06,23.95c11.37,11.07,21.41,24.88,34.11,42.37,5.12,7,10.48,14.41,16.26,22l7.53,0C457.39,402,451.17,393.41,445.28,385.3Z" transform="translate(0 0.4)"/>
        <path class="cls-4" d="M1022.77,527.12c-28,28.77-56.75,45.09-59.95,46.85-36.15,20-77.57,30.11-123.24,30.11q-4.56,0-9.19-.13C792.19,602.83,751,594.78,708,580c-73.92-25.37-129.43-62.33-135.51-66.46-52.31-35.51-84.1-71.22-108.27-102.71l-7.53,0c24.77,32.72,57.34,70.26,112.43,107.65,6.15,4.18,62.3,41.55,136.93,67.17,43.59,15,85.37,23.12,124.18,24.26,3.13.09,6.28.13,9.36.13,46.69,0,89.13-10.38,126.15-30.86a287.4,287.4,0,0,0,61.34-47.92c35.78-36.83,55.76-78.77,58.29-121.95h-6C1076.81,451,1057.42,491.45,1022.77,527.12Z" transform="translate(0 0.4)"/>
      </g>
    </g>
    <g id="center" class="cls-2">
      <g>
        <path class="cls-5" d="M65.88,407.1l4.57-3.9" transform="translate(0 0.4)"/>
        <path class="cls-6" d="M79.64,395.49C229.7,271.11,322.05,265.9,378.38,283.35c91,28.18,86.81,115.09,213.75,201.25,11.85,8,209.48,138.54,353.75,58.75,5.18-2.87,100-57.11,98.75-145-1.21-87-126.25-176.25-202.5-141.25-44.11,20.25-50.29,53.68-91.25,72.5-185,85-141.25-337.5,193.75-218.75,134.46,47.66,126.24,216.31,252.5,248.75,98.6,25.32,160.45-70.19,262.5-23.75,33.34,15.17,56.06,39.31,70.61,58.94" transform="translate(0 0.4)"/>
        <path class="cls-5" d="M1533.74,399.65q1.8,2.55,3.39,5" transform="translate(0 0.4)"/>
      </g>
    </g>
    <path id="theCurve" class="cls-7" d="M65.88,407.1c158.21-135.65,254.47-141.73,312.5-123.75,91,28.18,86.81,115.09,213.75,201.25,11.85,8,209.48,138.54,353.75,58.75,5.18-2.87,100-57.11,98.75-145-1.21-87-126.25-176.25-202.5-141.25-44.11,20.25-50.29,53.68-91.25,72.5-185,85-141.25-337.5,193.75-218.75,134.46,47.66,126.24,216.31,252.5,248.75,98.6,25.32,160.45-70.19,262.5-23.75,39.18,17.82,63.69,48,77.5,68.75" transform="translate(0 0.4)"/>
  </g>
  <g id="car">
    <path id="body" class="cls-8" d="M44.05,0a1.65,1.65,0,0,0-.52.08L43.25.2l.69,2.86-10,0c-6.24,0-13.32-.93-18.64-.76A57.25,57.25,0,0,0,3.15,4.57l-1.09.3C.52,5.29,0,12.66,0,18.21v.54C0,24.3.52,31.67,2.06,32.09l1.09.31a58,58,0,0,0,12.17,2.24c5.32.16,12.4-.78,18.64-.76l10,0-.69,2.87.28.12a2,2,0,0,0,.52.07l.21,0,.08,0,.07,0,.15,0a1.16,1.16,0,0,0,.38-.26h0a.42.42,0,0,0,.11-.18l1-2.5,8.79,0c1.91,1,3.64.86,5.89.86,10.66,0,15-6.93,15-16.11v-.38c0-9.18-4.3-16.11-15-16.11-2.25,0-4-.1-5.89.86L46,3.06l-1-2.5A.42.42,0,0,0,45,.38h0a1.05,1.05,0,0,0-.38-.27l-.15,0-.07,0-.08,0-.21,0Z" transform="translate(0 0.4)"/>
    <path class="cls-9" d="M45.81,4.72c-2.56,0-5.75.14-9.72.19-4.29,0-7.88-.29-10.69-.16a10.56,10.56,0,0,0-3.61.67,4.52,4.52,0,0,0-2.32,2.12l-.14.26.29,0a70.2,70.2,0,0,0,7.61.41C35.15,8.24,42.07,7,45.9,5.1Z" transform="translate(0 0.4)"/>
    <path id="path3703" class="cls-10" d="M50.56,6.36a2.74,2.74,0,0,0-.7.08h0l-5.11,1C43.33,8,42.19,8.56,42.19,10V27c0,1.42,1.14,2,2.56,2.56l5.11,1h0a3.26,3.26,0,0,0,.7.07c3.63,0,6.58-4.59,6.59-12.12s-3-12.12-6.59-12.12Z" transform="translate(0 0.4)"/>
    <path id="rect2864" class="cls-10" d="M16,9.1l-6.22,1c-2.17.35-3.91,3.9-4.08,8.39.17,4.49,1.91,8,4.08,8.39l6.22,1A1.91,1.91,0,0,0,18,26V11A1.91,1.91,0,0,0,16,9.1Z" transform="translate(0 0.4)"/>
    <path class="cls-9" d="M27.23,28.72a70.2,70.2,0,0,0-7.61.41l-.29,0,.14.26a4.52,4.52,0,0,0,2.32,2.12,10.56,10.56,0,0,0,3.61.67c2.81.13,6.4-.21,10.69-.16,4,.05,7.16.15,9.72.19l.09-.38C42.07,30,35.15,28.72,27.23,28.72Z" transform="translate(0 0.4)"/>
    <path id="path3707" class="cls-11" d="M74.33,26.7l-.41.05c-1.72.2-3,2.08-3.14,4.36l0,.57.42-.38a13,13,0,0,0,3-4.22l.17-.38Z" transform="translate(0 0.4)"/>
    <path id="path4161" class="cls-11" d="M74.33,10.34l-.41-.05c-1.72-.2-3-2.08-3.14-4.36l0-.57.42.38a13,13,0,0,1,3,4.22l.17.38Z" transform="translate(0 0.4)"/>
    <path id="path3715" class="cls-12" d="M57.88,27.58s6.38-1.8,8.43-2.55,7.91-3.14,7.91-3.14-.7,3.4-2.44,4.64c-6.17,4.39-18.61,4.31-18.61,4.31" transform="translate(0 0.4)"/>
    <path id="path4163" class="cls-12" d="M57.88,9.38s6.38,1.8,8.43,2.55,7.91,3.14,7.91,3.14-.7-3.4-2.44-4.64C65.61,6,53.17,6.12,53.17,6.12" transform="translate(0 0.4)"/>
  </g>
</svg>
